<svg id="visual" viewBox="0 0 960 300" width="960" height="300" xmlns="http://www.w3.org/2000/svg" xmlns:xlink="http://www.w3.org/1999/xlink" version="1.1"><rect x="0" y="0" width="960" height="300" fill="#ff0066"></rect><path d="M0 280L10.7 265C21.3 250 42.7 220 64 211C85.3 202 106.7 214 128 218.2C149.3 222.3 170.7 218.7 192 227.2C213.3 235.7 234.7 256.3 256 262.8C277.3 269.3 298.7 261.7 320 259.2C341.3 256.7 362.7 259.3 384 248C405.3 236.7 426.7 211.3 448 203C469.3 194.7 490.7 203.3 512 204.8C533.3 206.3 554.7 200.7 576 202C597.3 203.3 618.7 211.7 640 215C661.3 218.3 682.7 216.7 704 213.3C725.3 210 746.7 205 768 216C789.3 227 810.7 254 832 267.3C853.3 280.7 874.7 280.3 896 279.2C917.3 278 938.7 276 949.3 275L960 274L960 0L949.3 0C938.7 0 917.3 0 896 0C874.7 0 853.3 0 832 0C810.7 0 789.3 0 768 0C746.7 0 725.3 0 704 0C682.7 0 661.3 0 640 0C618.7 0 597.3 0 576 0C554.7 0 533.3 0 512 0C490.7 0 469.3 0 448 0C426.7 0 405.3 0 384 0C362.7 0 341.3 0 320 0C298.7 0 277.3 0 256 0C234.7 0 213.3 0 192 0C170.7 0 149.3 0 128 0C106.7 0 85.3 0 64 0C42.7 0 21.3 0 10.7 0L0 0Z" fill="#ff0066"></path><path d="M0 218L10.7 212.3C21.3 206.7 42.7 195.3 64 195.5C85.3 195.7 106.7 207.3 128 208.2C149.3 209 170.7 199 192 192.2C213.3 185.3 234.7 181.7 256 182.7C277.3 183.7 298.7 189.3 320 198.8C341.3 208.3 362.7 221.7 384 217C405.3 212.3 426.7 189.7 448 181.2C469.3 172.7 490.7 178.3 512 175.8C533.3 173.3 554.7 162.7 576 169.7C597.3 176.7 618.7 201.3 640 210.2C661.3 219 682.7 212 704 200.7C725.3 189.3 746.7 173.7 768 173.8C789.3 174 810.7 190 832 189.7C853.3 189.3 874.7 172.7 896 175.3C917.3 178 938.7 200 949.3 211L960 222L960 0L949.3 0C938.7 0 917.3 0 896 0C874.7 0 853.3 0 832 0C810.7 0 789.3 0 768 0C746.7 0 725.3 0 704 0C682.7 0 661.3 0 640 0C618.7 0 597.3 0 576 0C554.7 0 533.3 0 512 0C490.7 0 469.3 0 448 0C426.7 0 405.3 0 384 0C362.7 0 341.3 0 320 0C298.7 0 277.3 0 256 0C234.7 0 213.3 0 192 0C170.7 0 149.3 0 128 0C106.7 0 85.3 0 64 0C42.7 0 21.3 0 10.7 0L0 0Z" fill="#bd2b84"></path><path d="M0 136L10.7 142.2C21.3 148.3 42.7 160.7 64 160C85.3 159.3 106.7 145.7 128 143C149.3 140.3 170.7 148.7 192 154.8C213.3 161 234.7 165 256 159.5C277.3 154 298.7 139 320 129.8C341.3 120.7 362.7 117.3 384 127.8C405.3 138.3 426.7 162.7 448 165.5C469.3 168.3 490.7 149.7 512 143.5C533.3 137.3 554.7 143.7 576 153C597.3 162.3 618.7 174.7 640 175.2C661.3 175.7 682.7 164.3 704 152.7C725.3 141 746.7 129 768 128.7C789.3 128.3 810.7 139.7 832 136.7C853.3 133.7 874.7 116.3 896 110.8C917.3 105.3 938.7 111.7 949.3 114.8L960 118L960 0L949.3 0C938.7 0 917.3 0 896 0C874.7 0 853.3 0 832 0C810.7 0 789.3 0 768 0C746.7 0 725.3 0 704 0C682.7 0 661.3 0 640 0C618.7 0 597.3 0 576 0C554.7 0 533.3 0 512 0C490.7 0 469.3 0 448 0C426.7 0 405.3 0 384 0C362.7 0 341.3 0 320 0C298.7 0 277.3 0 256 0C234.7 0 213.3 0 192 0C170.7 0 149.3 0 128 0C106.7 0 85.3 0 64 0C42.7 0 21.3 0 10.7 0L0 0Z" fill="#733c81"></path><path d="M0 75L10.7 73.3C21.3 71.7 42.7 68.3 64 73.5C85.3 78.7 106.7 92.3 128 104.2C149.3 116 170.7 126 192 121C213.3 116 234.7 96 256 85.3C277.3 74.7 298.7 73.3 320 69.7C341.3 66 362.7 60 384 68C405.3 76 426.7 98 448 98.7C469.3 99.3 490.7 78.7 512 80C533.3 81.3 554.7 104.7 576 112.3C597.3 120 618.7 112 640 107.7C661.3 103.3 682.7 102.7 704 108.7C725.3 114.7 746.7 127.3 768 127.2C789.3 127 810.7 114 832 113.3C853.3 112.7 874.7 124.3 896 124.5C917.3 124.7 938.7 113.3 949.3 107.7L960 102L960 0L949.3 0C938.7 0 917.3 0 896 0C874.7 0 853.3 0 832 0C810.7 0 789.3 0 768 0C746.7 0 725.3 0 704 0C682.7 0 661.3 0 640 0C618.7 0 597.3 0 576 0C554.7 0 533.3 0 512 0C490.7 0 469.3 0 448 0C426.7 0 405.3 0 384 0C362.7 0 341.3 0 320 0C298.7 0 277.3 0 256 0C234.7 0 213.3 0 192 0C170.7 0 149.3 0 128 0C106.7 0 85.3 0 64 0C42.7 0 21.3 0 10.7 0L0 0Z" fill="#373860"></path><path d="M0 22L10.7 30.3C21.3 38.7 42.7 55.3 64 65C85.3 74.7 106.7 77.3 128 74.7C149.3 72 170.7 64 192 63.5C213.3 63 234.7 70 256 69.2C277.3 68.3 298.7 59.7 320 57.3C341.3 55 362.7 59 384 63.3C405.3 67.7 426.7 72.3 448 63.5C469.3 54.7 490.7 32.3 512 32.3C533.3 32.3 554.7 54.7 576 58.3C597.3 62 618.7 47 640 42.2C661.3 37.3 682.7 42.7 704 45.7C725.3 48.7 746.7 49.3 768 46.8C789.3 44.3 810.7 38.7 832 43.7C853.3 48.7 874.7 64.3 896 60.3C917.3 56.3 938.7 32.7 949.3 20.8L960 9L960 0L949.3 0C938.7 0 917.3 0 896 0C874.7 0 853.3 0 832 0C810.7 0 789.3 0 768 0C746.7 0 725.3 0 704 0C682.7 0 661.3 0 640 0C618.7 0 597.3 0 576 0C554.7 0 533.3 0 512 0C490.7 0 469.3 0 448 0C426.7 0 405.3 0 384 0C362.7 0 341.3 0 320 0C298.7 0 277.3 0 256 0C234.7 0 213.3 0 192 0C170.7 0 149.3 0 128 0C106.7 0 85.3 0 64 0C42.7 0 21.3 0 10.7 0L0 0Z" fill="#202731"></path></svg>