<svg id="visual" viewBox="0 0 960 300" width="960" height="300" xmlns="http://www.w3.org/2000/svg" xmlns:xlink="http://www.w3.org/1999/xlink" version="1.1"><rect x="0" y="0" width="960" height="300" fill="#202731"></rect><path d="M0 191L14.5 202.3C29 213.7 58 236.3 87.2 244.7C116.3 253 145.7 247 174.8 231.2C204 215.3 233 189.7 262 181.7C291 173.7 320 183.3 349 190.3C378 197.3 407 201.7 436.2 212.7C465.3 223.7 494.7 241.3 523.8 243.8C553 246.3 582 233.7 611 226.5C640 219.3 669 217.7 698 218.5C727 219.3 756 222.7 785.2 219C814.3 215.3 843.7 204.7 872.8 198.8C902 193 931 192 945.5 191.5L960 191L960 0L945.5 0C931 0 902 0 872.8 0C843.7 0 814.3 0 785.2 0C756 0 727 0 698 0C669 0 640 0 611 0C582 0 553 0 523.8 0C494.7 0 465.3 0 436.2 0C407 0 378 0 349 0C320 0 291 0 262 0C233 0 204 0 174.8 0C145.7 0 116.3 0 87.2 0C58 0 29 0 14.5 0L0 0Z" fill="#ff6f61"></path><path d="M0 219L14.5 213C29 207 58 195 87.2 195.8C116.3 196.7 145.7 210.3 174.8 205.3C204 200.3 233 176.7 262 174C291 171.3 320 189.7 349 198.8C378 208 407 208 436.2 201.2C465.3 194.3 494.7 180.7 523.8 169C553 157.3 582 147.7 611 148.8C640 150 669 162 698 171.3C727 180.7 756 187.3 785.2 193.8C814.3 200.3 843.7 206.7 872.8 204.8C902 203 931 193 945.5 188L960 183L960 0L945.5 0C931 0 902 0 872.8 0C843.7 0 814.3 0 785.2 0C756 0 727 0 698 0C669 0 640 0 611 0C582 0 553 0 523.8 0C494.7 0 465.3 0 436.2 0C407 0 378 0 349 0C320 0 291 0 262 0C233 0 204 0 174.8 0C145.7 0 116.3 0 87.2 0C58 0 29 0 14.5 0L0 0Z" fill="#f86657"></path><path d="M0 134L14.5 141.3C29 148.7 58 163.3 87.2 162.2C116.3 161 145.7 144 174.8 140.5C204 137 233 147 262 144.7C291 142.3 320 127.7 349 124.7C378 121.7 407 130.3 436.2 138.3C465.3 146.3 494.7 153.7 523.8 159.7C553 165.7 582 170.3 611 169.2C640 168 669 161 698 156.7C727 152.3 756 150.7 785.2 149.3C814.3 148 843.7 147 872.8 148.5C902 150 931 154 945.5 156L960 158L960 0L945.5 0C931 0 902 0 872.8 0C843.7 0 814.3 0 785.2 0C756 0 727 0 698 0C669 0 640 0 611 0C582 0 553 0 523.8 0C494.7 0 465.3 0 436.2 0C407 0 378 0 349 0C320 0 291 0 262 0C233 0 204 0 174.8 0C145.7 0 116.3 0 87.2 0C58 0 29 0 14.5 0L0 0Z" fill="#f15d4e"></path><path d="M0 145L14.5 138.2C29 131.3 58 117.7 87.2 115.3C116.3 113 145.7 122 174.8 118C204 114 233 97 262 96.3C291 95.7 320 111.3 349 113.8C378 116.3 407 105.7 436.2 106.3C465.3 107 494.7 119 523.8 122.3C553 125.7 582 120.3 611 121.5C640 122.7 669 130.3 698 127.5C727 124.7 756 111.3 785.2 107.8C814.3 104.3 843.7 110.7 872.8 107.5C902 104.3 931 91.7 945.5 85.3L960 79L960 0L945.5 0C931 0 902 0 872.8 0C843.7 0 814.3 0 785.2 0C756 0 727 0 698 0C669 0 640 0 611 0C582 0 553 0 523.8 0C494.7 0 465.3 0 436.2 0C407 0 378 0 349 0C320 0 291 0 262 0C233 0 204 0 174.8 0C145.7 0 116.3 0 87.2 0C58 0 29 0 14.5 0L0 0Z" fill="#eb5344"></path><path d="M0 104L14.5 100.3C29 96.7 58 89.3 87.2 87.2C116.3 85 145.7 88 174.8 86C204 84 233 77 262 77.7C291 78.3 320 86.7 349 89.5C378 92.3 407 89.7 436.2 89.3C465.3 89 494.7 91 523.8 88.3C553 85.7 582 78.3 611 78.7C640 79 669 87 698 82.8C727 78.7 756 62.3 785.2 54.7C814.3 47 843.7 48 872.8 57.5C902 67 931 85 945.5 94L960 103L960 0L945.5 0C931 0 902 0 872.8 0C843.7 0 814.3 0 785.2 0C756 0 727 0 698 0C669 0 640 0 611 0C582 0 553 0 523.8 0C494.7 0 465.3 0 436.2 0C407 0 378 0 349 0C320 0 291 0 262 0C233 0 204 0 174.8 0C145.7 0 116.3 0 87.2 0C58 0 29 0 14.5 0L0 0Z" fill="#e4493b"></path><path d="M0 56L14.5 56.5C29 57 58 58 87.2 57.5C116.3 57 145.7 55 174.8 49.8C204 44.7 233 36.3 262 32.3C291 28.3 320 28.7 349 31.8C378 35 407 41 436.2 42C465.3 43 494.7 39 523.8 40.8C553 42.7 582 50.3 611 51.3C640 52.3 669 46.7 698 40.5C727 34.3 756 27.7 785.2 28.2C814.3 28.7 843.7 36.3 872.8 40.2C902 44 931 44 945.5 44L960 44L960 0L945.5 0C931 0 902 0 872.8 0C843.7 0 814.3 0 785.2 0C756 0 727 0 698 0C669 0 640 0 611 0C582 0 553 0 523.8 0C494.7 0 465.3 0 436.2 0C407 0 378 0 349 0C320 0 291 0 262 0C233 0 204 0 174.8 0C145.7 0 116.3 0 87.2 0C58 0 29 0 14.5 0L0 0Z" fill="#dd3f31"></path></svg>